<svg height="783.33" width="1295.31" xmlns="http://www.w3.org/2000/svg" xmlns:xlink="http://www.w3.org/1999/xlink"><defs><path id="a" d="m114-163c-78-16-53 91-57 163h-32l-1-190h30c1 12-1 29 2 39 6-27 23-49 58-41z" fill="#3d4752"/><path id="b" d="m141-36c-15 21-31 41-68 40-36-1-58-21-58-57-1-64 63-63 125-63 3-35-9-54-41-54-24 1-41 7-42 31l-33-3c5-37 33-52 76-52 45 0 72 20 72 64v82c-1 20 7 32 28 27v20c-31 9-61-2-59-35zm-93-17c0 20 12 33 32 33 41-3 63-29 60-74-43 2-92-5-92 41" fill="#3d4752"/><path id="c" d="m85-194c31 0 48 13 60 33l-1-100h32l1 261h-30c-2-10 0-23-3-31-10 23-28 35-59 35-53 0-69-39-70-98 0-66 23-100 70-100zm9 24c-40 0-46 34-46 75 0 40 6 74 45 74 42 0 51-32 51-76 0-42-9-74-50-73" fill="#3d4752"/><filter id="d" height="1.26" width="1.11" x="-.05" y="-.05"><feOffset dy="6" in="SourceAlpha" result="offOut"/><feGaussianBlur in="offOut" result="blurOut" stdDeviation="5"/><feColorMatrix in="blurOut" result="colorOut" values="0 0 0 0 0 0 0 0 0 0 0 0 0 0 0 0 0 0 0.16862745098039217 0"/><feBlend in="SourceGraphic" in2="colorOut"/></filter><path id="e" d="m30-248c87 1 191-15 191 75 0 78-77 80-158 76v97h-33zm33 125c57 0 124 11 124-50 0-59-68-47-124-48z" fill="#3d4752"/><path id="f" d="m100-194c62-1 85 37 85 99 1 63-27 99-86 99s-83-39-84-99c0-66 28-99 85-99zm-1 174c44 1 53-31 53-75 0-43-8-75-51-75s-53 32-53 75 10 74 51 75" fill="#3d4752"/><path id="g" d="m84 4c-89 4-54-116-61-194h32v120c0 31 7 50 39 49 72-2 45-101 50-169h31l1 190h-30c-1-10 1-25-2-33-11 22-28 36-60 37" fill="#3d4752"/><path id="h" d="m96-169c-40 0-48 33-48 73s9 75 48 75c24 0 41-14 43-38l32 2c-6 37-31 61-74 61-59 0-76-41-82-99-10-93 101-131 147-64 4 7 5 14 7 22l-32 3c-4-21-16-35-41-35" fill="#3d4752"/><path id="i" d="m59-47c-2 24 18 29 38 22v24c-33 10-70 5-70-39v-127h-22v-23h24l9-43h21v43h35v23h-35z" fill="#3d4752"/><path id="j" d="m24 0v-261h32v261z" fill="#3d4752"/><path id="k" d="m185-189c-5-48-123-54-124 2 14 75 158 14 163 119 3 78-121 87-175 55-17-10-28-26-33-46l33-7c5 56 141 63 141-1 0-78-155-14-162-118-5-82 145-84 179-34 5 7 8 16 11 25" fill="#3d4752"/><path id="l" d="m24-231v-30h32v30zm0 231v-190h32v190z" fill="#3d4752"/><path id="m" d="m100-194c63 0 86 42 84 106h-135c0 40 14 67 53 68 26 1 43-12 49-29l28 8c-11 28-37 45-77 45-58 0-88-37-87-100 1-61 26-98 85-98zm52 81c6-60-76-77-97-28-3 7-6 17-6 28z" fill="#3d4752"/><path id="n" d="m106-169c-72 0-44 102-49 169h-32v-261h32l-1 103c12-21 28-36 61-36 89 0 53 116 60 194h-32v-121c2-32-8-49-39-48" fill="#3d4752"/><path id="o" d="m135-143c-3-34-86-38-87 0 15 53 115 12 119 90s-150 74-157 8l28-5c4 36 97 45 98 0-10-56-113-15-118-90-4-57 82-63 122-42 12 7 21 19 24 35" fill="#3d4752"/><path id="p" d="m-5 72v-23h209v23z" fill="#3d4752"/><path id="q" d="m140-251c81 0 123 46 123 126 0 79-44 129-123 129-81 0-123-49-123-129s42-126 123-126zm0 227c63 0 89-41 89-101s-29-99-89-99c-61 0-89 39-89 99s28 100 89 101" fill="#3d4752"/><path id="r" d="m30-248c118-7 216 8 213 122-3 78-43 126-121 126h-92zm33 221c89 8 146-16 146-99s-60-101-146-95z" fill="#3d4752"/><filter id="s" height="1.21" width="1.07" x="-.03" y="-.04"><feOffset dy="6" in="SourceAlpha" result="offOut"/><feGaussianBlur in="offOut" result="blurOut" stdDeviation="5"/><feColorMatrix in="blurOut" result="colorOut" values="0 0 0 0 0 0 0 0 0 0 0 0 0 0 0 0 0 0 0.16862745098039217 0"/><feBlend in="SourceGraphic" in2="colorOut"/></filter><filter id="t" height="1.26" width="1.09" x="-.05" y="-.05"><feOffset dy="6" in="SourceAlpha" result="offOut"/><feGaussianBlur in="offOut" result="blurOut" stdDeviation="5"/><feColorMatrix in="blurOut" result="colorOut" values="0 0 0 0 0 0 0 0 0 0 0 0 0 0 0 0 0 0 0.16862745098039217 0"/><feBlend in="SourceGraphic" in2="colorOut"/></filter><path id="u" d="m233-177c-1 41-23 64-60 70l70 107h-38l-65-103h-77v103h-33v-248c88 3 205-21 203 71zm-170 48c60-2 137 13 137-47 0-61-80-42-137-45z" fill="#3d4752"/><path id="v" d="m115-194c55 1 70 41 70 98s-16 98-70 100c-31 0-49-13-60-34l1 105h-32l-1-265h31l2 30c10-21 28-34 59-34zm-8 174c40 0 45-34 45-75s-6-73-45-74c-42 0-51 32-51 76 0 43 10 73 51 73" fill="#3d4752"/><filter id="w" height="1.26" width="1.07" x="-.04" y="-.05"><feOffset dy="6" in="SourceAlpha" result="offOut"/><feGaussianBlur in="offOut" result="blurOut" stdDeviation="5"/><feColorMatrix in="blurOut" result="colorOut" values="0 0 0 0 0 0 0 0 0 0 0 0 0 0 0 0 0 0 0.16862745098039217 0"/><feBlend in="SourceGraphic" in2="colorOut"/></filter></defs><g transform="translate(-65.694215 -55.66865)"><path d="m0 0h1360v1760h-1360z" fill="#fff"/><g filter="url(#d)"><path d="m86.7 88c0-4.42 3.58-8 8-8h168.66c4.42 0 8 3.58 8 8v62c0 4.42-3.58 8-8 8h-168.66c-4.42 0-8-3.58-8-8z" fill="#fff" stroke="#3d4752" stroke-width="4"/><g transform="translate(143.675696 125.333333)"><path d="m160-131c35 5 61 23 61 61 0 87-106 68-191 70v-248c76 3 177-17 177 60 0 33-19 50-47 57zm-97-11c50-1 110 9 110-42 0-47-63-36-110-37zm0 115c55-2 124 14 124-45 0-56-70-42-124-44z" fill="#3d4752" transform="scale(.07407407)"/><use transform="matrix(.07407407 0 0 .07407407 17.777778 0)" xlink:href="#a"/><use transform="matrix(.07407407 0 0 .07407407 26.592593 0)" xlink:href="#b"/><path d="m117-194c89-4 53 116 60 194h-32v-121c0-31-8-49-39-48-72 2-44 102-49 169h-32l-1-190h30c1 10-1 24 2 32 11-22 29-35 61-36" fill="#3d4752" transform="matrix(.07407407 0 0 .07407407 41.407407 0)"/><use transform="matrix(.07407407 0 0 .07407407 56.222222 0)" xlink:href="#c"/></g></g><path d="m293.36 119h58.36" fill="none" stroke="#3d4752" stroke-width="4"/><path d="m295.36 129h-4v-20h4z" fill="#3d4752"/><path d="m293.36 121h-20v-4h20z" fill="#3d4752"/><path d="m368.47 129-20-10 20-10m0 10h-20" fill="#fff" stroke="#3d4752" stroke-width="4"/><g filter="url(#d)"><path d="m371.36 88c0-4.42 3.6-8 8-8h168.67c4.42 0 8 3.58 8 8v62c0 4.42-3.58 8-8 8h-168.67c-4.4 0-8-3.58-8-8z" fill="#fff" stroke="#3d4752" stroke-width="4"/><g transform="translate(417.974747 125.333333)"><use transform="scale(.07407407)" xlink:href="#e"/><use transform="matrix(.07407407 0 0 .07407407 17.777778 0)" xlink:href="#a"/><use transform="matrix(.07407407 0 0 .07407407 26.592593 0)" xlink:href="#f"/><use transform="matrix(.07407407 0 0 .07407407 41.407407 0)" xlink:href="#c"/><use transform="matrix(.07407407 0 0 .07407407 56.222222 0)" xlink:href="#g"/><use transform="matrix(.07407407 0 0 .07407407 71.037037 0)" xlink:href="#h"/><use transform="matrix(.07407407 0 0 .07407407 84.37037 0)" xlink:href="#i"/></g></g><g filter="url(#d)"><path d="m260 248c0-4.42 3.58-8 8-8h168.67c4.42 0 8 3.58 8 8v62c0 4.42-3.58 8-8 8h-168.67c-4.42 0-8-3.58-8-8z" fill="#fff" stroke="#3d4752" stroke-width="4"/><g transform="translate(320.759259 285.333333)"><path d="m212-179c-10-28-35-45-73-45-59 0-87 40-87 99 0 60 29 101 89 101 43 0 62-24 78-52l27 14c-18 38-51 66-107 66-80 0-117-50-121-129-6-104 99-153 187-111 19 9 31 26 39 46" fill="#3d4752" transform="scale(.07407407)"/><use transform="matrix(.07407407 0 0 .07407407 19.185185 0)" xlink:href="#f"/><use transform="matrix(.07407407 0 0 .07407407 34 0)" xlink:href="#j"/><use transform="matrix(.07407407 0 0 .07407407 39.851852 0)" xlink:href="#f"/><use transform="matrix(.07407407 0 0 .07407407 54.666667 0)" xlink:href="#a"/></g></g><g filter="url(#d)"><path d="m480 248c0-4.42 3.58-8 8-8h168.67c4.42 0 8 3.58 8 8v62c0 4.42-3.58 8-8 8h-168.67c-4.42 0-8-3.58-8-8z" fill="#fff" stroke="#3d4752" stroke-width="4"/><g transform="translate(546.611111 285.333333)"><use transform="scale(.07407407)" xlink:href="#k"/><use transform="matrix(.07407407 0 0 .07407407 17.777778 0)" xlink:href="#l"/><path d="m9 0v-24l116-142h-109v-24h144v24l-116 142h123v24z" fill="#3d4752" transform="matrix(.07407407 0 0 .07407407 23.62963 0)"/><use transform="matrix(.07407407 0 0 .07407407 36.962963 0)" xlink:href="#m"/></g></g><path d="m430.33 177.65v21.35h-78v19" fill="none" stroke="#494949" stroke-width="4"/><path d="m440.33 160.9-10 20-10-20m10 0v20" fill="#fff" stroke="#494949" stroke-width="4"/><path d="m362.33 220h-20v-4h20z" fill="#494949"/><path d="m354.33 238h-4v-20h4z" fill="#494949"/><path d="m494.33 177.65v21.35h78v19" fill="none" stroke="#494949" stroke-width="4"/><path d="m504.33 160.9-10 20-10-20m10 0v20" fill="#fff" stroke="#494949" stroke-width="4"/><path d="m582.33 220h-20v-4h20z" fill="#494949"/><path d="m574.33 238h-4v-20h4z" fill="#494949"/><path d="m578.03 141.28h161.97v448.12h-107.05" fill="none" stroke="#494949" stroke-width="4"/><path d="m580.03 151.28h-4v-20h4z" fill="#494949"/><path d="m578.03 143.28h-20v-4h20z" fill="#494949"/><path d="m616.2 579.4 20 10-20 10m0-10h20" fill="#fff" stroke="#494949" stroke-width="4"/><g filter="url(#s)"><path d="m320 548.8c0-4.42 3.58-8 8-8h277.3c4.42 0 8 3.58 8 8v81.2c0 4.42-3.58 8-8 8h-277.3c-4.42 0-8-3.58-8-8z" fill="#fff" stroke="#3d4752" stroke-width="4"/><g transform="translate(330.962963 595.133333)"><use transform="scale(.07407407)" xlink:href="#e"/><use transform="matrix(.07407407 0 0 .07407407 17.777778 0)" xlink:href="#g"/><use transform="matrix(.07407407 0 0 .07407407 32.592593 0)" xlink:href="#a"/><use transform="matrix(.07407407 0 0 .07407407 41.407407 0)" xlink:href="#h"/><use transform="matrix(.07407407 0 0 .07407407 54.740741 0)" xlink:href="#n"/><use transform="matrix(.07407407 0 0 .07407407 69.555556 0)" xlink:href="#b"/><use transform="matrix(.07407407 0 0 .07407407 84.37037 0)" xlink:href="#o"/><use transform="matrix(.07407407 0 0 .07407407 97.703704 0)" xlink:href="#m"/><use transform="matrix(.07407407 0 0 .07407407 112.518519 0)" xlink:href="#p"/><use transform="matrix(.07407407 0 0 .07407407 127.333333 0)" xlink:href="#q"/><use transform="matrix(.07407407 0 0 .07407407 148.074074 0)" xlink:href="#a"/><use transform="matrix(.07407407 0 0 .07407407 156.888889 0)" xlink:href="#c"/><use transform="matrix(.07407407 0 0 .07407407 171.703704 0)" xlink:href="#m"/><use transform="matrix(.07407407 0 0 .07407407 186.518519 0)" xlink:href="#a"/><path d="m16-82v-28h88v28z" fill="#3d4752" transform="matrix(.07407407 0 0 .07407407 195.333333 0)"/><use transform="matrix(.07407407 0 0 .07407407 204.148148 0)" xlink:href="#r"/><use transform="matrix(.07407407 0 0 .07407407 223.333333 0)" xlink:href="#m"/><use transform="matrix(.07407407 0 0 .07407407 238.148148 0)" xlink:href="#i"/><use transform="matrix(.07407407 0 0 .07407407 245.555556 0)" xlink:href="#b"/><use transform="matrix(.07407407 0 0 .07407407 260.37037 0)" xlink:href="#l"/><use transform="matrix(.07407407 0 0 .07407407 266.222222 0)" xlink:href="#j"/></g></g><g filter="url(#t)"><path d="m360 388c0-4.42 3.58-8 8-8h204c4.42 0 8 3.58 8 8v62c0 4.42-3.58 8-8 8h-204c-4.42 0-8-3.58-8-8z" fill="#fff" stroke="#3d4752" stroke-width="4"/><g transform="translate(372.833333 424.333333)"><use transform="scale(.07407407)" xlink:href="#e"/><use transform="matrix(.07407407 0 0 .07407407 17.777778 0)" xlink:href="#g"/><use transform="matrix(.07407407 0 0 .07407407 32.592593 0)" xlink:href="#a"/><use transform="matrix(.07407407 0 0 .07407407 41.407407 0)" xlink:href="#h"/><use transform="matrix(.07407407 0 0 .07407407 54.740741 0)" xlink:href="#n"/><use transform="matrix(.07407407 0 0 .07407407 69.555556 0)" xlink:href="#b"/><use transform="matrix(.07407407 0 0 .07407407 84.37037 0)" xlink:href="#o"/><use transform="matrix(.07407407 0 0 .07407407 97.703704 0)" xlink:href="#m"/><use transform="matrix(.07407407 0 0 .07407407 112.518519 0)" xlink:href="#p"/><use transform="matrix(.07407407 0 0 .07407407 127.333333 0)" xlink:href="#q"/><use transform="matrix(.07407407 0 0 .07407407 148.074074 0)" xlink:href="#a"/><use transform="matrix(.07407407 0 0 .07407407 156.888889 0)" xlink:href="#c"/><use transform="matrix(.07407407 0 0 .07407407 171.703704 0)" xlink:href="#m"/><use transform="matrix(.07407407 0 0 .07407407 186.518519 0)" xlink:href="#a"/></g></g><path d="m470 480v41.15" fill="none" stroke="#494949" stroke-width="4"/><path d="m480 482h-20v-4h20z" fill="#494949"/><path d="m472 480h-4v-20h4z" fill="#494949"/><path d="m460 537.9 10-20 10 20m-10 0v-20" fill="#fff" stroke="#494949" stroke-width="4"/><g filter="url(#t)"><path d="m780 388c0-4.42 3.58-8 8-8h204c4.42 0 8 3.58 8 8v62c0 4.42-3.58 8-8 8h-204c-4.42 0-8-3.58-8-8z" fill="#fff" stroke="#3d4752" stroke-width="4"/><g transform="translate(803.981481 425.333333)"><use transform="scale(.07407407)" xlink:href="#u"/><use transform="matrix(.07407407 0 0 .07407407 19.185185 0)" xlink:href="#m"/><use transform="matrix(.07407407 0 0 .07407407 34 0)" xlink:href="#h"/><use transform="matrix(.07407407 0 0 .07407407 47.333333 0)" xlink:href="#m"/><use transform="matrix(.07407407 0 0 .07407407 62.148148 0)" xlink:href="#l"/><use transform="matrix(.07407407 0 0 .07407407 68 0)" xlink:href="#v"/><use transform="matrix(.07407407 0 0 .07407407 82.814815 0)" xlink:href="#i"/><use transform="matrix(.07407407 0 0 .07407407 90.222222 0)" xlink:href="#p"/><use transform="matrix(.07407407 0 0 .07407407 105.037037 0)" xlink:href="#q"/><use transform="matrix(.07407407 0 0 .07407407 125.777778 0)" xlink:href="#a"/><use transform="matrix(.07407407 0 0 .07407407 134.592593 0)" xlink:href="#c"/><use transform="matrix(.07407407 0 0 .07407407 149.407407 0)" xlink:href="#m"/><use transform="matrix(.07407407 0 0 .07407407 164.222222 0)" xlink:href="#a"/></g></g><path d="m602 419h158.35" fill="none" stroke="#494949" stroke-width="4"/><path d="m604 429h-4v-20h4z" fill="#494949"/><path d="m602 421h-20v-4h20z" fill="#494949"/><path d="m777.1 429-20-10 20-10m0 10h-20" fill="#fff" stroke="#494949" stroke-width="4"/><g filter="url(#t)"><path d="m780 568c0-4.42 3.58-8 8-8h204c4.42 0 8 3.58 8 8v62c0 4.42-3.58 8-8 8h-204c-4.42 0-8-3.58-8-8z" fill="#fff" stroke="#3d4752" stroke-width="4"/><g transform="translate(857.166667 605.333333)"><use transform="scale(.07407407)" xlink:href="#k"/><use transform="matrix(.07407407 0 0 .07407407 17.777778 0)" xlink:href="#i"/><use transform="matrix(.07407407 0 0 .07407407 25.185185 0)" xlink:href="#f"/><use transform="matrix(.07407407 0 0 .07407407 40 0)" xlink:href="#h"/><path d="m143 0-64-87-23 19v68h-32v-261h32v163l83-92h37l-77 82 82 108z" fill="#3d4752" transform="matrix(.07407407 0 0 .07407407 53.333333 0)"/></g></g><path d="m890 480v60.35" fill="none" stroke="#494949" stroke-width="4"/><path d="m900 482h-20v-4h20z" fill="#494949"/><path d="m892 480h-4v-20h4z" fill="#494949"/><path d="m880 557.1 10-20 10 20m-10 0v-20" fill="#fff" stroke="#494949" stroke-width="4"/><g filter="url(#t)"><path d="m780 748c0-4.42 3.58-8 8-8h204c4.42 0 8 3.58 8 8v62c0 4.42-3.58 8-8 8h-204c-4.42 0-8-3.58-8-8z" fill="#fff" stroke="#3d4752" stroke-width="4"/><g transform="translate(815.833333 785.333333)"><use transform="scale(.07407407)" xlink:href="#k"/><use transform="matrix(.07407407 0 0 .07407407 17.777778 0)" xlink:href="#b"/><use transform="matrix(.07407407 0 0 .07407407 32.592593 0)" xlink:href="#j"/><use transform="matrix(.07407407 0 0 .07407407 38.444444 0)" xlink:href="#m"/><use transform="matrix(.07407407 0 0 .07407407 53.259259 0)" xlink:href="#o"/><use transform="matrix(.07407407 0 0 .07407407 66.592593 0)" xlink:href="#p"/><use transform="matrix(.07407407 0 0 .07407407 81.407407 0)" xlink:href="#r"/><use transform="matrix(.07407407 0 0 .07407407 100.592593 0)" xlink:href="#m"/><use transform="matrix(.07407407 0 0 .07407407 115.407407 0)" xlink:href="#i"/><use transform="matrix(.07407407 0 0 .07407407 122.814815 0)" xlink:href="#b"/><use transform="matrix(.07407407 0 0 .07407407 137.62963 0)" xlink:href="#l"/><use transform="matrix(.07407407 0 0 .07407407 143.481481 0)" xlink:href="#j"/></g></g><g filter="url(#t)"><path d="m360 748c0-4.42 3.58-8 8-8h204c4.42 0 8 3.58 8 8v62c0 4.42-3.58 8-8 8h-204c-4.42 0-8-3.58-8-8z" fill="#fff" stroke="#3d4752" stroke-width="4"/><g transform="translate(437.203704 785.333333)"><use transform="scale(.07407407)" xlink:href="#k"/><use transform="matrix(.07407407 0 0 .07407407 17.777778 0)" xlink:href="#b"/><use transform="matrix(.07407407 0 0 .07407407 32.592593 0)" xlink:href="#j"/><use transform="matrix(.07407407 0 0 .07407407 38.444444 0)" xlink:href="#m"/><use transform="matrix(.07407407 0 0 .07407407 53.259259 0)" xlink:href="#o"/></g></g><path d="m602 779h158.35" fill="none" stroke="#494949" stroke-width="4"/><path d="m604 789h-4v-20h4z" fill="#494949"/><path d="m602 781h-20v-4h20z" fill="#494949"/><path d="m777.1 789-20-10 20-10m0 10h-20" fill="#fff" stroke="#494949" stroke-width="4"/><g filter="url(#w)"><path d="m1060 488c0-4.42 3.58-8 8-8h264c4.42 0 8 3.58 8 8v62c0 4.42-3.58 8-8 8h-264c-4.42 0-8-3.58-8-8z" fill="#fff" stroke="#3d4752" stroke-width="4"/><g transform="translate(1072.111111 524.333333)"><use transform="scale(.07407407)" xlink:href="#u"/><use transform="matrix(.07407407 0 0 .07407407 19.185185 0)" xlink:href="#m"/><use transform="matrix(.07407407 0 0 .07407407 34 0)" xlink:href="#h"/><use transform="matrix(.07407407 0 0 .07407407 47.333333 0)" xlink:href="#m"/><use transform="matrix(.07407407 0 0 .07407407 62.148148 0)" xlink:href="#l"/><use transform="matrix(.07407407 0 0 .07407407 68 0)" xlink:href="#v"/><use transform="matrix(.07407407 0 0 .07407407 82.814815 0)" xlink:href="#i"/><use transform="matrix(.07407407 0 0 .07407407 90.222222 0)" xlink:href="#p"/><use transform="matrix(.07407407 0 0 .07407407 105.037037 0)" xlink:href="#q"/><use transform="matrix(.07407407 0 0 .07407407 125.777778 0)" xlink:href="#a"/><use transform="matrix(.07407407 0 0 .07407407 134.592593 0)" xlink:href="#c"/><use transform="matrix(.07407407 0 0 .07407407 149.407407 0)" xlink:href="#m"/><use transform="matrix(.07407407 0 0 .07407407 164.222222 0)" xlink:href="#a"/><use transform="matrix(.07407407 0 0 .07407407 173.037037 0)" xlink:href="#p"/><use transform="matrix(.07407407 0 0 .07407407 187.851852 0)" xlink:href="#r"/><use transform="matrix(.07407407 0 0 .07407407 207.037037 0)" xlink:href="#m"/><use transform="matrix(.07407407 0 0 .07407407 221.851852 0)" xlink:href="#i"/><use transform="matrix(.07407407 0 0 .07407407 229.259259 0)" xlink:href="#b"/><use transform="matrix(.07407407 0 0 .07407407 244.074074 0)" xlink:href="#l"/><use transform="matrix(.07407407 0 0 .07407407 249.925926 0)" xlink:href="#j"/></g></g><path d="m1022 419.1 178 .9v40.35" fill="none" stroke="#494949" stroke-width="4"/><path d="m1024.05 409.1-.1 20h-4l.1-20z" fill="#494949"/><path d="m1022 417.1v4l-20-.1v-4z" fill="#494949"/><path d="m1190 477.1 10-20 10 20m-10 0v-20" fill="#fff" stroke="#494949" stroke-width="4"/><path d="m578.03 96.67h676.43v363.68" fill="none" stroke="#494949" stroke-width="4"/><path d="m580.03 106.67h-4v-20h4z" fill="#494949"/><path d="m578.03 98.67h-20v-4h20z" fill="#494949"/><path d="m1244.46 477.1 10-20 10 20m-10 0v-20" fill="#fff" stroke="#494949" stroke-width="4"/><path d="m890 660v60.35" fill="none" stroke="#494949" stroke-width="4"/><path d="m900 662h-20v-4h20z" fill="#494949"/><path d="m892 660h-4v-20h4z" fill="#494949"/><path d="m880 737.1 10-20 10 20m-10 0v-20" fill="#fff" stroke="#494949" stroke-width="4"/></g></svg>